{
    "asset" : {
        "generator" : "Khronos glTF Blender I/O v1.8.19",
        "version" : "2.0"
    },
    "scene" : 0,
    "scenes" : [
        {
            "name" : "Scene",
            "nodes" : [
                0
            ]
        }
    ],
    "nodes" : [
        {
            "mesh" : 0,
            "name" : "Piletina sa kinoom - meshmixer - obj - final.001",
            "rotation" : [
                0.7071068286895752,
                0,
                0,
                0.7071067094802856
            ],
            "scale" : [
                0.10000000149011612,
                0.10000000149011612,
                0.10000000149011612
            ],
            "translation" : [
                -0.3457069396972656,
                0.47063422203063965,
                2.9704670906066895
            ]
        }
    ],
    "materials" : [
        {
            "doubleSided" : true,
            "name" : "Default OBJ.001",
            "pbrMetallicRoughness" : {
                "baseColorFactor" : [
                    0.800000011920929,
                    0.800000011920929,
                    0.800000011920929,
                    1
                ],
                "metallicFactor" : 0,
                "roughnessFactor" : 0.5
            }
        }
    ],
    "meshes" : [
        {
            "name" : "Piletina sa kinoom - meshmixer - obj - final.001",
            "primitives" : [
                {
                    "attributes" : {
                        "POSITION" : 0,
                        "NORMAL" : 1
                    },
                    "indices" : 2,
                    "material" : 0
                }
            ]
        }
    ],
    "accessors" : [
        {
            "bufferView" : 0,
            "componentType" : 5126,
            "count" : 415452,
            "max" : [
                144.85867309570312,
                27.539932250976562,
                141.9188232421875
            ],
            "min" : [
                -138.09872436523438,
                -20.401382446289062,
                -141.72662353515625
            ],
            "type" : "VEC3"
        },
        {
            "bufferView" : 1,
            "componentType" : 5126,
            "count" : 415452,
            "type" : "VEC3"
        },
        {
            "bufferView" : 2,
            "componentType" : 5125,
            "count" : 2490291,
            "type" : "SCALAR"
        }
    ],
    "bufferViews" : [
        {
            "buffer" : 0,
            "byteLength" : 4985424,
            "byteOffset" : 0
        },
        {
            "buffer" : 0,
            "byteLength" : 4985424,
            "byteOffset" : 4985424
        },
        {
            "buffer" : 0,
            "byteLength" : 9961164,
            "byteOffset" : 9970848
        }
    ],
    "buffers" : [
        {
            "byteLength" : 19932012,
            "uri" : "Piletina sa kinoom - meshmixer - obj - final.bin"
        }
    ]
}
