{
    "asset" : {
        "generator" : "Khronos glTF Blender I/O v1.8.19",
        "version" : "2.0"
    },
    "scene" : 0,
    "scenes" : [
        {
            "name" : "Scene",
            "nodes" : [
                0
            ]
        }
    ],
    "nodes" : [
        {
            "mesh" : 0,
            "name" : "Piletina sa kinoom - meshmixer - obj - final.001",
            "rotation" : [
                0.7071068286895752,
                0,
                0,
                0.7071067094802856
            ],
            "translation" : [
                -50.43462371826172,
                -26.086870193481445,
                265.0593566894531
            ]
        }
    ],
    "materials" : [
        {
            "doubleSided" : true,
            "name" : "Default OBJ.001",
            "pbrMetallicRoughness" : {
                "baseColorFactor" : [
                    0.800000011920929,
                    0.800000011920929,
                    0.800000011920929,
                    1
                ],
                "metallicFactor" : 0,
                "roughnessFactor" : 0.5
            }
        }
    ],
    "meshes" : [
        {
            "name" : "Piletina sa kinoom - meshmixer - obj - final.001",
            "primitives" : [
                {
                    "attributes" : {
                        "POSITION" : 0,
                        "NORMAL" : 1
                    },
                    "indices" : 2,
                    "material" : 0
                }
            ]
        }
    ],
    "accessors" : [
        {
            "bufferView" : 0,
            "componentType" : 5126,
            "count" : 415452,
            "max" : [
                189.0637664794922,
                -214.94796752929688,
                101.4129638671875
            ],
            "min" : [
                -93.89362335205078,
                -262.8892822265625,
                -182.23248291015625
            ],
            "type" : "VEC3"
        },
        {
            "bufferView" : 1,
            "componentType" : 5126,
            "count" : 415452,
            "type" : "VEC3"
        },
        {
            "bufferView" : 2,
            "componentType" : 5125,
            "count" : 2490291,
            "type" : "SCALAR"
        }
    ],
    "bufferViews" : [
        {
            "buffer" : 0,
            "byteLength" : 4985424,
            "byteOffset" : 0
        },
        {
            "buffer" : 0,
            "byteLength" : 4985424,
            "byteOffset" : 4985424
        },
        {
            "buffer" : 0,
            "byteLength" : 9961164,
            "byteOffset" : 9970848
        }
    ],
    "buffers" : [
        {
            "byteLength" : 19932012,
            "uri" : "Piletina sa kinoom - meshmixer - obj - final.bin"
        }
    ]
}
